<svg xmlns="http://www.w3.org/2000/svg" viewBox="0 0 222.91 60.01"><defs><style>.cls-1{fill:#fff;}</style></defs><title>Asset 5</title><g id="Layer_2" data-name="Layer 2"><g id="Layer_1-2" data-name="Layer 1"><path class="cls-1" d="M153.16,42.52c.19.31,0,.45-.16.58-.64.5-1.26,1-1.93,1.47a17.87,17.87,0,0,1-6.6,2.79,2.51,2.51,0,0,0-.68.2h79.12V60H32.71c.15-.12.25-.21.36-.28L51.22,47.87a1.9,1.9,0,0,1,1.11-.3H139V47.5c-.78-.2-1.56-.38-2.33-.6a16.64,16.64,0,0,1-10.8-9.07A17.64,17.64,0,0,1,124.19,33a7,7,0,0,1-.33-1.51,19.31,19.31,0,0,1,.69-4.73,18.94,18.94,0,0,1,3.53-6.55c.53-.64,1.11-1.21,1.66-1.82a5.79,5.79,0,0,1,.65-.45A14.93,14.93,0,0,1,133.53,16c.35-.16.65-.46,1.08-.38,0,0,.07,0,.1,0,.87-.57,1.95-.44,2.87-.86a1.75,1.75,0,0,1,.69,0c1,0,2.09,0,3.13,0a14,14,0,0,1,4.4.7c.65.2,1.31.37,2,.57a2.28,2.28,0,0,0,2.46-.66l.22-.23a1,1,0,0,1,1.13-.26,2.07,2.07,0,0,1,1.26,1c.33.65.72,1.28,1.11,1.91.24.37.54.71.81,1.07l.31.4c-.2,0-.29,0-.35-.05a28,28,0,0,0-6.36-2.74c-.52-.15-1-.28-1.56-.42a1.06,1.06,0,0,1-.25-.09,2.1,2.1,0,0,0-1.47-.4,2.78,2.78,0,0,1-.63-.11,13.23,13.23,0,0,0-1.85-.31,32.62,32.62,0,0,0-3.83,0,12.21,12.21,0,0,0-9.62,5.46,10,10,0,0,0-1.6,6.42c0,.61.12,1.21.12,1.82a4.68,4.68,0,0,0,.57,2.17c.68,1.32,1.36,2.65,2.06,4l3.13,5.84a12.77,12.77,0,0,0,2,2.93A10.62,10.62,0,0,0,141,46.61a11.08,11.08,0,0,0,6-.58,3.38,3.38,0,0,0,.56-.2,33.53,33.53,0,0,0,4.2-2.3c.46-.35.94-.65,1.46-1"/><path class="cls-1" d="M18.59,4.07a1.38,1.38,0,0,0,1-.44,1.85,1.85,0,0,1,.58-.39,1,1,0,0,0,.63-.54,7.25,7.25,0,0,0,.85-.36c1-.55,1.92-1.12,2.87-1.69a4.42,4.42,0,0,0,.67-.46A.59.59,0,0,1,26,.11c.25.13.51.26.76.41l5,2.9c.18.11.34.24.59.4-.24.2-.41.36-.59.48L23.24,9.7c-.94.6-1.87,1.22-2.81,1.8-1.19.74-2.4,1.46-3.59,2.19a1.94,1.94,0,0,0-.44.31.55.55,0,0,0,.06.85,2.84,2.84,0,0,0,1.63.63.67.67,0,0,0,.64-.33,1.42,1.42,0,0,1,.45-.43q6.26-3.93,12.52-7.83c.26-.16.52-.33.76-.51a1.87,1.87,0,0,0,.81-1.72c0-.11,0-.22,0-.33l.07-.07c2.73,2,5.7,3.68,8.68,5.51a4.17,4.17,0,0,1-.49.37c-3.06,1.84-6.12,3.69-9.19,5.52-1.7,1-3.41,2-5.11,3l-.57.3a.66.66,0,0,0-.17,1.14,1.27,1.27,0,0,0,.27.18l7.68,4.25c.12.07.23.16.39.27a3.36,3.36,0,0,1-.28.27,1.09,1.09,0,0,1-.23.14l-6.84,3.65c-.34.17-.7.3-1,.49s-.42.43-.63.43-.43-.27-.67-.4l-8.87-5L2.67,16.72A2.79,2.79,0,0,0,2,16.41a.71.71,0,0,0-.94.62,3.89,3.89,0,0,0,0,.59V42.91c0,.16,0,.32,0,.48A1.37,1.37,0,0,0,1.8,44.6L5.88,47l17.2,10.2,1.74,1.07a1.71,1.71,0,0,0,2.05-.09c1.19-.81,2.44-1.51,3.67-2.26,1.41-.86,2.82-1.73,4.24-2.56A2.21,2.21,0,0,0,36,51.24c0-1.52,0-3.05,0-4.58,0-.59,0-1.18,0-1.78,0-.23,0-.46,0-.7A1.84,1.84,0,0,1,37,42.61c1.68-.94,3.34-1.91,5-2.86a2.41,2.41,0,0,0,1.29-2.31c0-2.55,0-5.1-.06-7.65,0-.72,0-1.44,0-2.16s-.4-1-1.06-.62-1.56.88-2.34,1.32-1.63.92-2.43,1.39c-.33.19-.63.41-1,.57s-.57.09-.56-.35c0-.78,0-1.55,0-2.32a.89.89,0,0,1,.54-.9c.67-.33,1.31-.75,2-1.14.46-.28.89-.59,1.35-.88a2.65,2.65,0,0,1,.3-.11,2.87,2.87,0,0,0,.55-.22,10.28,10.28,0,0,1,1.94-1.11,1.07,1.07,0,0,0,.56-1.09V20.29c0-3.1,0-6.19,0-9.28V10.4a3.93,3.93,0,0,1,.39.21c.47.33.92.69,1.41,1,1.85,1.13,3.7,2.27,5.58,3.36a1.86,1.86,0,0,1,1,1.76q0,13.16,0,26.31c0,.4,0,.79,0,1.18a.69.69,0,0,1-.37.72l-5.23,3.22c-.47.28-1,.52-1.45.81s-.64.51-1,.74a6.75,6.75,0,0,1-.69.39,4.56,4.56,0,0,0-.76.4,7.73,7.73,0,0,1-1.53,1c-.46.25-.86.59-1.3.88a5.09,5.09,0,0,1-.5.3c-.11.06-.24.09-.35.15l-3.28,2s-.05.06-.08.07a6,6,0,0,0-1.67,1l-.57.38a.78.78,0,0,1-.18.11l-2.18,1.14a1,1,0,0,0-.24.22c-.06.06-.12.18-.18.18-.45,0-.73.4-1.13.55a9,9,0,0,0-1.36.75c-.31.19-.58.43-.89.61a1.39,1.39,0,0,1-1.53,0c-.86-.55-1.73-1.09-2.6-1.63-.62-.39-1.22-.81-1.85-1.16-2.39-1.32-4.71-2.75-7.06-4.13-.51-.3-1-.64-1.51-.94-2.76-1.64-5.45-3.4-8.22-5-.76-.45-1.49-1-2.24-1.41A4.74,4.74,0,0,0,.6,45,.84.84,0,0,1,0,44.18c0-.23,0-.46,0-.7Q0,34.65,0,25.8c0-3.32,0-6.65,0-10a.61.61,0,0,1,.4-.66,10.46,10.46,0,0,0,1.08-.7c.1-.07.19-.19.3-.22a4,4,0,0,0,1.36-.74c1.8-1.24,3.77-2.16,5.63-3.3,1.27-.78,2.51-1.59,3.77-2.39a.94.94,0,0,1,.18-.12,11.69,11.69,0,0,0,2.14-1.24c1-.6,2-1.15,3-1.74a4.93,4.93,0,0,0,.7-.65"/><path class="cls-1" d="M184.76,17.19h1.58l6.74,0c.39,0,.79,0,1.18,0a1,1,0,0,1,1,.77c.5,1.42,1,2.84,1.54,4.25q1.5,4.1,3,8.19c.14.37.23.76.35,1.14a1.66,1.66,0,0,0,.15.39.77.77,0,0,0,.72.4c.32,0,.44-.28.51-.55.38-1.38.76-2.77,1.15-4.15q1.35-4.87,2.71-9.75a2.24,2.24,0,0,1,.29-.63.87.87,0,0,1,0,.69c-.65,2.72-1.32,5.44-1.95,8.16s-1.24,5.65-1.86,8.47q-.56,2.55-1.12,5.1c-.17.79-.39,1.57-.53,2.36-.09.51-.1,1-.14,1.54,0,.12,0,.23-.05.34L200,44l-15.2-26.78"/><path class="cls-1" d="M163.32,17.18h.61c.52,0,1,.06,1.56.06h10.3a2.43,2.43,0,0,1,.27,0c.7,0,.71,0,.72.73,0,.44,0,.89.06,1.34s0,.37-.35.39-.4,0-.6,0a2.53,2.53,0,0,0-2.58,2.38c0,.31,0,.61,0,.92V40.16c0,.36,0,.72,0,1.07a2.31,2.31,0,0,0,.6,1.36,1.53,1.53,0,0,0,1.29.54c.81,0,.9.07.87.86,0,.43,0,.86.06,1.29s0,.42-.37.44l-1.72.06a.73.73,0,0,1-.75-.58c-.22-.59-.41-1.19-.63-1.78-1.14-3.15-2.3-6.3-3.43-9.46q-2.16-6-4.3-12l-1.44-4.06c-.07-.21-.11-.43-.18-.71"/><path class="cls-1" d="M154,38.4a1.75,1.75,0,0,1-.88,1.87c-.12.08-.23.17-.34.26-1.12.9-2.21,1.85-3.38,2.68a9.05,9.05,0,0,1-5.26,1.69,10.33,10.33,0,0,1-6-1.79,8.48,8.48,0,0,1-2.62-3c-1-1.9-2-3.82-3-5.74-.68-1.32-1.37-2.64-2-4a10.82,10.82,0,0,1-.42-7.64,5,5,0,0,1,1-1.84,11.8,11.8,0,0,1,5-3.65,15,15,0,0,1,4.5-.78,12.8,12.8,0,0,1,2,.2c1,.13,2,.24,2.93.44a11,11,0,0,1,1.88.64c.61.25,1.2.57,1.81.83a36.19,36.19,0,0,1,5.38,3.06A5.06,5.06,0,0,1,156,22.89l2.64,3.74a2.69,2.69,0,0,1,.17.34c-.32.23-.62.45-.93.65s-.63.21-.89-.21-.61-1.06-.94-1.57a4.34,4.34,0,0,0-.48-.58s-.11-.06-.12-.1a2.48,2.48,0,0,0-.77-1.07c-.31-.31-.53-.71-.82-1.05a16.55,16.55,0,0,0-1.41-1.49A21.19,21.19,0,0,0,148,18.4a13.3,13.3,0,0,0-4-1.23,16.27,16.27,0,0,0-4.46-.17,2.44,2.44,0,0,0-.47.09,7.16,7.16,0,0,1-1.95.37,2.54,2.54,0,0,0-.93.38c-.4.2-.79.42-1.18.63a1.35,1.35,0,0,0-.33.19A15.15,15.15,0,0,0,133.48,20a3.5,3.5,0,0,0-.56,2.52,7.85,7.85,0,0,0,.68,2.37q2.9,6.62,5.8,13.22c.29.66.57,1.32.87,2A5.76,5.76,0,0,0,145,43.45a3.44,3.44,0,0,0,1.74-.22c.24-.09.48-.16.72-.23a9.92,9.92,0,0,0,2.38-1,15.22,15.22,0,0,0,3.83-3.28,2.35,2.35,0,0,1,.34-.27"/><path class="cls-1" d="M220.23,45.67H219.1a.58.58,0,0,1-.62-.41c-.34-1-.69-1.93-1-2.9s-.69-2.22-1.06-3.32q-1.23-3.7-2.48-7.4c-.16-.48-.36-.94-.52-1.42a7.66,7.66,0,0,1-.23-.82s0-.11,0-.16a9,9,0,0,1-.67-2,4.5,4.5,0,0,0-.22-.55c-.26-.48-.32-1-.53-1.5A18.54,18.54,0,0,0,211,23a3.09,3.09,0,0,1-.19-.61c-.13-.35-.27-.69-.39-1-.4-1.19-.79-2.38-1.19-3.57a1.76,1.76,0,0,1-.1-.3,2.07,2.07,0,0,1,0-.35l.3.05a6.1,6.1,0,0,0,.84.13h11.11a7.77,7.77,0,0,1,1,.08.53.53,0,0,1,.53.52,13.31,13.31,0,0,1-.12,1.55c0,.21-.21.27-.41.27h-1a4,4,0,0,0-2.2.62,1.59,1.59,0,0,0-.82,1.25c0,.27,0,.54,0,.81V40.5a6.33,6.33,0,0,0,.07,1,2,2,0,0,0,1.89,1.69c.34,0,.68,0,1,0s.59.17.51.62a3.82,3.82,0,0,0,0,1.39c.07.36,0,.46-.38.48s-.82,0-1.24,0Z"/><path class="cls-1" d="M207.73,27.71c-.39-.2-.41-.2-.63.06s-.37.44-.53.67a2.63,2.63,0,0,0-.31.57c-.34,1-.66,2.08-1,3.12l-2.1,6.68c-.06.18-.13.36-.2.53l-.11,0a4.13,4.13,0,0,1,.07-.49c.26-1.08.53-2.16.78-3.24.08-.35.1-.71.15-1.06A4.37,4.37,0,0,1,204,34a2.58,2.58,0,0,0,.22-.6,24.66,24.66,0,0,1,.53-2.72c.12-.78.35-1.54.53-2.31.42-1.89.85-3.78,1.27-5.67.26-1.17.5-2.35.76-3.53a2.11,2.11,0,0,1,.08-.22.56.56,0,0,1,.23.53,6.06,6.06,0,0,0,.4,1.83q1.6,4.83,3.2,9.66c1,3.06,2,6.13,3.06,9.19.5,1.5,1,3,1.48,4.5.11.33.27.65.44,1.07-.27,0-.45.06-.63.06H205.09a3.23,3.23,0,0,1-.44,0,.49.49,0,0,1-.52-.55c0-.59,0-1.18,0-1.77,0-.32.11-.41.43-.38s.5.09.75.1a2.46,2.46,0,0,0,2.31-1.31,1.55,1.55,0,0,0,.15-1.14,3.65,3.65,0,0,1-.09-.74q0-4.26,0-8.52c0-.66.09-1.32.1-2,0-.41-.06-.81-.09-1.22,0-.18,0-.35,0-.57"/><path class="cls-1" d="M122.33,45.63a4.6,4.6,0,0,1-.49,0H108.68a2.57,2.57,0,0,1-.48,0,.4.4,0,0,1-.4-.42V43.08a5.5,5.5,0,0,1,.71,0,8.48,8.48,0,0,0,2.36,0,1.35,1.35,0,0,0,1.16-2c-.28-.68-.63-1.33-1-2a1.12,1.12,0,0,0-1-.61H96.57a1.27,1.27,0,0,0-1.12.65c-.29.51-.56,1-.82,1.57a1.72,1.72,0,0,0,1.51,2.44h2.32a4,4,0,0,1,.49,0,.39.39,0,0,1,.39.37c0,.69,0,1.39.07,2.16H92.13a1.6,1.6,0,0,1-.4-.14c.08-.21.13-.4.21-.56l3.75-7.52c.29-.57.37-.6,1-.49a3.08,3.08,0,0,0,.53,0H116a1.18,1.18,0,0,1,1.1.63q2.07,3.26,4.15,6.5c.32.5.69,1,1.07,1.52"/><path class="cls-1" d="M162,20.62a6.23,6.23,0,0,1,.47,1.06,87.58,87.58,0,0,0,2.88,8.5c1.05,2.92,2.07,5.85,3.11,8.78.56,1.6,1.14,3.21,1.73,4.81.18.48.41.95.62,1.42l.2.46a5.87,5.87,0,0,1-.62.07c-2.48,0-5,0-7.44,0-.84,0-1.68.06-2.53.09-.61,0-.74-.09-.74-.69s0-1,0-1.56.12-.51.53-.5a2.35,2.35,0,0,0,.53,0,1.4,1.4,0,0,0,.69-.26,2.28,2.28,0,0,0,.89-1.65c0-2.74,0-5.49,0-8.24s0-5.46,0-8.18c0-1.15-.08-2.3-.15-3.44a4.14,4.14,0,0,0-.15-.68Z"/><path class="cls-1" d="M94,26.42l-.39-.55c-.63-.94-1.21-1.91-1.91-2.8a10,10,0,0,0-4.93-3.5,6.46,6.46,0,0,0-1.85-.31c-3.45,0-6.9,0-10.35,0a.83.83,0,0,0-.94.82,3.85,3.85,0,0,0,0,.48V27.8c0,1.08.15,1.22,1.25,1.23H77l-.34.21-5.81,2.58c-.5.23-.56.2-.77-.35q-1.69-4.65-3.38-9.31c-.21-.57-.45-1.14-.66-1.71-.14-.39-.08-.49.34-.48a10.15,10.15,0,0,0,2.51-.31A7.47,7.47,0,0,1,70,19.56c.75-.07,1.5-.13,2.25-.22,1.19-.14,2.38-.32,3.58-.45s2.36-.2,3.54-.33a8.07,8.07,0,0,0,1.27-.23,7.25,7.25,0,0,1,1.92-.21,8.47,8.47,0,0,0,2.34-.28,8,8,0,0,1,1.76-.2,10.33,10.33,0,0,0,3-.45c.75-.25,1.09-.1,1.43.62.69,1.44,1.35,2.9,2,4.34.44.94.92,1.87,1.36,2.81A1,1,0,0,1,94,26.42"/><path class="cls-1" d="M64.73,23.81c0,.17.08.34.13.5.37,1.18.72,2.37,1.13,3.53Q68.51,34.95,71.06,42c.22.63.42,1.26.67,1.88s.41.91.62,1.37c.05.11.09.22.15.38a2.19,2.19,0,0,1-.39.06H60.74c-.76,0-.83-.1-.86-.84,0-.37,0-.75-.05-1.13a1,1,0,0,1,.28-.83,2.89,2.89,0,0,0,1.86.16,2.85,2.85,0,0,0,2.67-2.8c0-.18,0-.36,0-.54V23.84l.09,0"/><path class="cls-1" d="M103.52,34.55h4.2a2.69,2.69,0,0,0,.49,0,.7.7,0,0,0,.58-.92,2.74,2.74,0,0,0-.15-.4c-1.1-2.4-2.2-4.79-3.31-7.19-.18-.4-.34-.83-.53-1.23a.69.69,0,0,0-1.15-.25,2.48,2.48,0,0,0-.45.6c-.36.63-.7,1.29-1.06,1.93l-3.52,6.17c-.46.82-.17,1.32.75,1.33h4.15m12,.18a2.08,2.08,0,0,1-.39.08l-15.58,0c-.61,0-1.23,0-1.83,0a4.66,4.66,0,0,1-.49-.06l8.44-15a1.46,1.46,0,0,1,.25.24q4.14,6.38,8.27,12.74c.4.62.86,1.2,1.28,1.8A.57.57,0,0,1,115.51,34.73Z"/><path class="cls-1" d="M125.8,44.19c0,.37.06.74.12,1.11,0,.18,0,.34-.13.43s-.32,0-.41-.17c-.33-.46-.66-.94-1-1.41s-.73-1-1.07-1.55c-.52-.81-1-1.64-1.53-2.46-.19-.31-.37-.62-.56-.92-.35-.56-.71-1.12-1.07-1.67l-2.79-4.34c-.34-.55-.65-1.12-1-1.65-1.27-1.8-2.36-3.72-3.59-5.55-.24-.34-.5-.66-.73-1s-.56-.86-.83-1.29-.42-.8-.68-1.16c-.53-.76-1.07-1.52-1.54-2.33s-1.15-1.81-1.74-2.72l-.23-.37a.34.34,0,0,1,.13-.5c1.36-1,2.73-1.93,4.1-2.87.39-.27.53-.23.8.16.06.07.09.16.15.22a1,1,0,0,1,.12,1.39,2.94,2.94,0,0,0-.09,2.31,10.6,10.6,0,0,0,.52,1.36q4,8.9,8,17.78c.59,1.31,1.19,2.61,1.86,3.88a7.94,7.94,0,0,0,1.2,1.58,1.94,1.94,0,0,0,1.4.6c.59,0,.65.09.65.66v.48h0"/><path class="cls-1" d="M186.9,39.86c-.08-1-.15-2-.25-3-.23-2.34-.47-4.68-.69-7-.05-.49,0-1-.07-1.45-.06-.79-.14-1.58-.2-2.36,0-.39-.06-.79-.1-1.18s-.08-.57-.09-.85,0-.85,0-1.4c.12.18.18.25.22.33.33.77.61,1.58,1,2.31,2.82,5.11,5.67,10.2,8.5,15.3.63,1.13,1.24,2.27,1.87,3.39.26.45.57.87.86,1.3l.26.41a4.87,4.87,0,0,1-.54.06c-.83,0-1.66,0-2.48,0a.87.87,0,0,1-.94-.63c-1.22-2.92-2.47-5.85-3.71-8.77l-2.61-6.14a2.76,2.76,0,0,0-.18-.39c-.16-.26-.43-.24-.51.05a5.79,5.79,0,0,0-.39,1.89c.06,2.53.08,5.06.12,7.59,0,.18,0,.35,0,.53h0"/><path class="cls-1" d="M103.64,18.66a.37.37,0,0,1,0,.53,5.25,5.25,0,0,1-.33.49,7,7,0,0,0-1,1.87,6.53,6.53,0,0,1-.58,1.07,11,11,0,0,0-.91,1.6,2.31,2.31,0,0,1-.36.54,2.66,2.66,0,0,0-.52,1,1.18,1.18,0,0,1-.26.46,6.79,6.79,0,0,0-1.14,2,1.12,1.12,0,0,1-.2.3,2,2,0,0,0-.24.35,4.61,4.61,0,0,1-.76,1.37,1,1,0,0,0-.15.34c0,.1,0,.23-.12.29A2.43,2.43,0,0,0,96.47,32c-.1.21-.26.39-.38.59a2.57,2.57,0,0,0-.35.65,2.25,2.25,0,0,1-.6,1.06,1,1,0,0,0-.28.44,1.8,1.8,0,0,1-.38.8A23.13,23.13,0,0,0,93,38.08a11.74,11.74,0,0,1-.65,1.15c-.3.49-.54,1-.81,1.52-.08.15-.18.3-.27.44s-.07.05-.08.08a7.73,7.73,0,0,1-.67,1.19,9.5,9.5,0,0,1-.48.89A5.86,5.86,0,0,0,89.19,45a.89.89,0,0,1-1,.68l-1.83,0a2.84,2.84,0,0,1-.58-.05.37.37,0,0,1-.35-.41V43c.07,0,.1-.08.13-.08l1.93.1A2.7,2.7,0,0,0,90,42a12.41,12.41,0,0,0,1.16-1.87c.93-1.77,1.81-3.55,2.71-5.33,1.13-2.22,2.27-4.44,3.4-6.67.34-.67.68-1.34,1-2a2.89,2.89,0,0,0,.16-1.59,1,1,0,0,0-.76-.82c-.19-.06-.39-.1-.58-.14a.58.58,0,0,1-.46-.53,8.74,8.74,0,0,1-.07-1c0-.39.16-.52.55-.6a6.94,6.94,0,0,0,1.19-.31,21.92,21.92,0,0,0,3.54-1.57,9.8,9.8,0,0,1,1-.36c.31-.14.59-.32.87-.48"/><path class="cls-1" d="M89.75,14.91a1.51,1.51,0,0,1-.93.24,3.1,3.1,0,0,0-1.2.28.74.74,0,0,1-.41.08,10.32,10.32,0,0,0-2.72.22c-1.06.12-2.11.19-3.17.31l-6.84.81c-.89.1-1.79.17-2.68.26l-4.18.44-2.25.22-.24,0c-.31-.78-.63-1.57-1-2.42a3.35,3.35,0,0,1,.47-.06c1.15,0,2.3.06,3.44.06l16.56,0c.34,0,.68,0,1-.05a2.87,2.87,0,0,0,2-1,7.2,7.2,0,0,1,1-.77.3.3,0,0,1,.5.09c.24.44.45.89.67,1.34"/><path class="cls-1" d="M183.41,23.56c.08,1,.17,2.07.25,3.1l.27,3.65c.06.75.11,1.5.17,2.25.14,1.61.28,3.22.41,4.83.09,1.13.15,2.26.23,3.38.11,1.5.23,3,.35,4.51,0,.1,0,.21,0,.37a2.82,2.82,0,0,1-.47.07c-1.11,0-2.23,0-3.34,0-.71,0-.89-.21-.9-.91,0-.41,0-.82,0-1.23s.13-.49.54-.49.82,0,1.23,0a1.07,1.07,0,0,0,1-.93,5.91,5.91,0,0,0,.1-1.12c0-5.74,0-11.49,0-17.23v-.22h.12"/><path class="cls-1" d="M73.35,33.11a1.69,1.69,0,0,1,.08.39A16.22,16.22,0,0,0,73.78,37c.21,1.28.42,2.55.62,3.83a2.25,2.25,0,0,0,1.12,1.63,4.28,4.28,0,0,0,2.17.72c.34,0,.44.1.47.45,0,.58,0,1.15.06,1.72,0,.27-.18.33-.39.34H76.54c-.36,0-.72,0-1.08,0a.47.47,0,0,1-.56-.37c-.27-.8-.57-1.59-.84-2.39Q72.7,39,71.35,35c0-.11-.08-.21-.11-.31a.59.59,0,0,1,.35-.8c.27-.14.57-.22.85-.34s.57-.28.91-.44"/><path class="cls-1" d="M74.2,32.75l7.4-3.18a4.87,4.87,0,0,1,.06.54c0,1.69,0,3.38,0,5.06,0,.54,0,1.08.07,1.61s0,.5-.43.5H79.57a.31.31,0,0,1-.36-.36c0-.38,0-.76,0-1.13s0-.47,0-.7A2.15,2.15,0,0,0,77,32.87c-.79,0-1.58.05-2.37.07l-.39,0a.88.88,0,0,1,0-.16"/><path class="cls-1" d="M187.05,41.67c.29.39.54.74.8,1.07a1,1,0,0,0,1,.36c.77-.06,1.54-.05,2.31-.05.34,0,.51.14.53.48,0,.65,0,1.29,0,1.94,0,.22-.14.32-.35.33h-3.23c-.6,0-.67-.11-.71-.68-.06-.93-.16-1.86-.25-2.78,0-.21,0-.42-.08-.68"/><path class="cls-1" d="M78.74,28.07a1.7,1.7,0,0,1,.11-.36A2.89,2.89,0,0,0,79.16,26a7.1,7.1,0,0,1,0-.92c0-.3.16-.4.47-.4l1.45,0c.46,0,.56.12.62.58s.09.85.13,1.28a.48.48,0,0,1-.31.52c-.21.1-.44.17-.65.27-.4.19-.81.37-1.2.58a1.07,1.07,0,0,1-.91.12"/><path class="cls-1" d="M183.24,22.24c-.05-.3-.09-.59-.15-.89a1.72,1.72,0,0,0-1.63-1.45c-.56,0-.63-.14-.64-.7s0-1,0-1.56.08-.51.5-.48.72,0,1.08.08.45.14.44.49a13,13,0,0,0,.36,2.77,1.09,1.09,0,0,1,0,.26,2.55,2.55,0,0,0,.12,1.06,1,1,0,0,1,0,.41h-.1"/><path class="cls-1" d="M63,18.74c-.16,0-.24,0-.29-.08a3.56,3.56,0,0,0-1.77-.56c-.48-.05-.56-.12-.57-.59s0-1.21,0-1.82a.41.41,0,0,1,.37-.45.89.89,0,0,1,1.08.5,5.16,5.16,0,0,1,.33.85,6.39,6.39,0,0,0,.8,1.86c0,.05,0,.13.07.29"/><path class="cls-1" d="M162,20.61a1.83,1.83,0,0,0-1.51-.66,2.09,2.09,0,0,1-.7-.2.42.42,0,0,1-.23-.5,3.56,3.56,0,0,0,0-1.89c.57-.37,1.07-.28,1.3.27.4.93.76,1.88,1.13,2.83a.29.29,0,0,1,0,.16h0"/></g></g></svg>